<svg xmlns="http://www.w3.org/2000/svg" viewBox="0 0 1600 900" role="img" aria-label="storm-night">
 <defs><linearGradient id="sky" x1="0" y1="0" x2="0" y2="1"><stop offset="0" stop-color="#08111d"/><stop offset=".58" stop-color="#142332"/><stop offset="1" stop-color="#293543"/></linearGradient><linearGradient id="shade" x1="0" y1="0" x2="1" y2="0"><stop stop-color="#050708" stop-opacity=".5"/><stop offset=".5" stop-color="#050708" stop-opacity=".05"/><stop offset="1" stop-color="#050708" stop-opacity=".18"/></linearGradient></defs>
 <rect width="1600" height="900" fill="url(#sky)"/><g fill="#fff" opacity=".55"><circle cx="120" cy="90" r="2"/><circle cx="260" cy="130" r="2"/><circle cx="420" cy="75" r="2"/><circle cx="650" cy="145" r="2"/><circle cx="820" cy="80" r="2"/><circle cx="1080" cy="120" r="2"/><circle cx="1280" cy="70" r="2"/><circle cx="1460" cy="160" r="2"/></g><g transform="translate(460 160) scale(1)" opacity="0.96">
 <ellipse cx="0" cy="35" rx="150" ry="45" fill="#30383e"/><circle cx="-75" cy="5" r="62" fill="#30383e"/><circle cx="0" cy="-18" r="78" fill="#30383e"/><circle cx="82" cy="12" r="58" fill="#30383e"/>
 </g><g transform="translate(1120 215) scale(0.95)" opacity="0.94">
 <ellipse cx="0" cy="35" rx="150" ry="45" fill="#30383e"/><circle cx="-75" cy="5" r="62" fill="#30383e"/><circle cx="0" cy="-18" r="78" fill="#30383e"/><circle cx="82" cy="12" r="58" fill="#30383e"/>
 </g><path d="M910 260 l-70 115 h58 l-45 112 125-154 h-67 l54-73z" fill="#e5c978" opacity=".9"/>
 <path d="M0 560 L170 470 280 525 430 405 590 535 760 455 930 540 1100 430 1260 520 1420 445 1600 545 V900 H0z" fill="#293333" opacity=".72"/>
 <path d="M0 635 C240 585 420 640 650 595 C860 555 1040 650 1260 590 C1430 545 1530 575 1600 565 V900 H0z" fill="#101718"/>
 <g fill="#151b1a" opacity=".92"><rect x="1110" y="545" width="190" height="118"/><path d="M1080 550 L1205 475 1330 550z"/><rect x="1175" y="500" width="24" height="48"/><rect x="1205" y="454" width="9" height="42"/></g>
 <g fill="#a7b4bf" opacity="0.62"><rect x="1140" y="585" width="28" height="25"/><rect x="1235" y="585" width="28" height="25"/></g>
 <g fill="#101817" opacity=".9"><path d="M80 660 l45 -145 l45 145z"/><path d="M160 660 l57 -145 l57 145z"/><path d="M250 660 l45 -145 l45 145z"/><path d="M340 660 l57 -145 l57 145z"/><path d="M1450 660 l45 -145 l45 145z"/><path d="M1510 660 l57 -145 l57 145z"/></g>
 <path d="M0 720 C330 670 520 770 820 720 C1120 675 1320 760 1600 700 V900 H0z" fill="#172329" opacity=".85"/><path d="M1030 715 L1210 900 H930z" fill="#a7b4bf" opacity=".08"/><rect width="1600" height="900" fill="url(#shade)"/>
 </svg>